<svg width="95" height="95" viewBox="0 0 95 95" fill="none" xmlns="http://www.w3.org/2000/svg">
<path d="M39.8999 86.0328H55.1002V79.0601C55.1002 78.2206 55.7806 77.5401 56.6203 77.5401V74.5H39.8999V86.0328Z" fill="#F4EEE2"/>
<path d="M8.99255 8.96715V58.2446H86.0075V8.96715H53.3236C51.488 8.96715 49.7843 9.88201 48.7663 11.4142C48.4844 11.8382 48.0094 12.0929 47.5002 12.0929C46.9911 12.0929 46.5161 11.8382 46.2344 11.4142C45.2159 9.88181 43.5123 8.96695 41.6771 8.96695H8.99255V8.96715ZM27.357 53.1778H15.707C14.8674 53.1778 14.187 52.4972 14.187 51.6578C14.187 50.8183 14.8674 50.1377 15.707 50.1377H27.357C28.1966 50.1377 28.877 50.8183 28.877 51.6578C28.877 52.4972 28.1966 53.1778 27.357 53.1778ZM39.0071 45.957H15.707C14.8674 45.957 14.187 45.2765 14.187 44.437C14.187 43.5975 14.8674 42.917 15.707 42.917H39.0071C39.8468 42.917 40.5271 43.5975 40.5271 44.437C40.5271 45.2765 39.8466 45.957 39.0071 45.957ZM39.0071 38.7363H15.707C14.8674 38.7363 14.187 38.0557 14.187 37.2162C14.187 36.3768 14.8674 35.6962 15.707 35.6962H39.0071C39.8468 35.6962 40.5271 36.3768 40.5271 37.2162C40.5271 38.0557 39.8466 38.7363 39.0071 38.7363ZM14.187 29.9955C14.187 29.156 14.8674 28.4755 15.707 28.4755H27.357C28.1966 28.4755 28.877 29.156 28.877 29.9955C28.877 30.8349 28.1966 31.5155 27.357 31.5155H15.707C14.8674 31.5155 14.187 30.8349 14.187 29.9955ZM39.0071 24.2948H15.707C14.8674 24.2948 14.187 23.6142 14.187 22.7747C14.187 21.9353 14.8674 21.2547 15.707 21.2547H39.0071C39.8468 21.2547 40.5271 21.9353 40.5271 22.7747C40.5271 23.6142 39.8466 24.2948 39.0071 24.2948ZM39.0071 17.074H15.707C14.8674 17.074 14.187 16.3934 14.187 15.554C14.187 14.7145 14.8674 14.0339 15.707 14.0339H39.0071C39.8468 14.0339 40.5271 14.7145 40.5271 15.554C40.5271 16.3934 39.8466 17.074 39.0071 17.074ZM55.993 14.0339H79.2928C80.1325 14.0339 80.8129 14.7145 80.8129 15.554C80.8129 16.3934 80.1325 17.074 79.2928 17.074H55.993C55.1533 17.074 54.4729 16.3934 54.4729 15.554C54.4729 14.7145 55.1535 14.0339 55.993 14.0339ZM55.993 21.2547H79.2928C80.1325 21.2547 80.8129 21.9353 80.8129 22.7747C80.8129 23.6142 80.1325 24.2948 79.2928 24.2948H55.993C55.1533 24.2948 54.4729 23.6142 54.4729 22.7747C54.4729 21.9353 55.1535 21.2547 55.993 21.2547ZM55.993 28.4755H67.6427C68.4824 28.4755 69.1627 29.156 69.1627 29.9955C69.1627 30.8349 68.4824 31.5155 67.6427 31.5155H55.993C55.1533 31.5155 54.4729 30.8349 54.4729 29.9955C54.4729 29.156 55.1535 28.4755 55.993 28.4755ZM55.993 35.6962H79.2928C80.1325 35.6962 80.8129 36.3768 80.8129 37.2162C80.8129 38.0557 80.1325 38.7363 79.2928 38.7363H55.993C55.1533 38.7363 54.4729 38.0557 54.4729 37.2162C54.4729 36.3768 55.1535 35.6962 55.993 35.6962ZM55.993 42.917H79.2928C80.1325 42.917 80.8129 43.5975 80.8129 44.437C80.8129 45.2765 80.1325 45.957 79.2928 45.957H55.993C55.1533 45.957 54.4729 45.2765 54.4729 44.437C54.4729 43.5975 55.1535 42.917 55.993 42.917ZM55.993 50.1377H67.6427C68.4824 50.1377 69.1627 50.8183 69.1627 51.6578C69.1627 52.4972 68.4824 53.1778 67.6427 53.1778H55.993C55.1533 53.1778 54.4729 52.4972 54.4729 51.6578C54.4729 50.8183 55.1535 50.1377 55.993 50.1377ZM45.98 16.653C45.98 15.8136 46.6604 15.133 47.5 15.133C48.3397 15.133 49.0201 15.8136 49.0201 16.653V53.6843C49.0201 54.5237 48.3397 55.2043 47.5 55.2043C46.6604 55.2043 45.98 54.5237 45.98 53.6843V16.653Z" fill="white"/>
<path d="M5.95242 15.0473H3.04004V58.2446H5.95242V15.0473Z" fill="#798593"/>
<path d="M91.96 15.0473H89.0476V58.2446H91.96V15.0473Z" fill="#798593"/>
<path d="M91.9599 61.2847H3.04004V66.9001C3.04004 69.4146 5.0858 71.4602 7.60014 71.4602H87.3998C89.9142 71.4602 91.9599 69.4146 91.9599 66.9001V61.2847Z" fill="#820024"/>
<path d="M93.48 12.0072H89.0476V7.44713C89.0476 6.60766 88.3672 5.92709 87.5275 5.92709H53.3236C51.1313 5.92709 49.0604 6.76494 47.5002 8.23207C45.94 6.76514 43.8689 5.92709 41.6771 5.92709H7.47248C6.63281 5.92709 5.95245 6.60766 5.95245 7.44713V12.0072H1.52003C0.680367 12.0072 0 12.6878 0 13.5273V66.8999C0 71.0907 3.40933 74.5 7.60016 74.5H36.8598V86.0328H30.273C29.4333 86.0328 28.7529 86.7134 28.7529 87.5528C28.7529 88.3923 29.4333 89.0729 30.273 89.0729H64.727C65.5667 89.0729 66.2471 88.3923 66.2471 87.5528C66.2471 86.7134 65.5667 86.0328 64.727 86.0328H58.1402V79.0601C58.1402 78.2207 57.4599 77.5401 56.6202 77.5401C55.7805 77.5401 55.1002 78.2207 55.1002 79.0601V86.0328H39.8998V74.5H87.3998C91.5907 74.5 95 71.0907 95 66.8999V13.5273C95 12.6878 94.3196 12.0072 93.48 12.0072ZM87.3998 71.46H7.60016C5.08583 71.46 3.04006 69.4144 3.04006 66.8999V61.2845H91.9599V66.8999C91.9599 69.4144 89.9142 71.46 87.3998 71.46ZM46.2341 11.4144C46.5158 11.8384 46.9909 12.0932 47.5 12.0932C48.0091 12.0932 48.4842 11.8384 48.7661 11.4144C49.7841 9.88202 51.488 8.96736 53.3233 8.96736H86.0075V58.2448H8.99251V8.96716H41.6769C43.512 8.96716 45.2157 9.88202 46.2341 11.4144ZM91.9599 58.2446H89.0476V15.0473H91.9599V58.2446ZM5.95245 58.2446H3.04006V15.0473H5.95245V58.2446Z" fill="#1E1E24"/>
<path d="M47.4999 55.2045C48.3396 55.2045 49.0199 54.5239 49.0199 53.6845V16.653C49.0199 15.8136 48.3396 15.133 47.4999 15.133C46.6602 15.133 45.9799 15.8136 45.9799 16.653V53.6843C45.9799 54.5239 46.6604 55.2045 47.4999 55.2045Z" fill="#1E1E24"/>
<path d="M39.0071 14.0339H15.707C14.8674 14.0339 14.187 14.7145 14.187 15.554C14.187 16.3934 14.8674 17.074 15.707 17.074H39.0071C39.8468 17.074 40.5271 16.3934 40.5271 15.554C40.5271 14.7145 39.8466 14.0339 39.0071 14.0339Z" fill="#1E1E24"/>
<path d="M39.0071 21.2547H15.707C14.8674 21.2547 14.187 21.9353 14.187 22.7747C14.187 23.6142 14.8674 24.2948 15.707 24.2948H39.0071C39.8468 24.2948 40.5271 23.6142 40.5271 22.7747C40.5271 21.9353 39.8466 21.2547 39.0071 21.2547Z" fill="#1E1E24"/>
<path d="M15.707 31.5156H27.357C28.1966 31.5156 28.877 30.835 28.877 29.9956C28.877 29.1561 28.1966 28.4755 27.357 28.4755H15.707C14.8674 28.4755 14.187 29.1561 14.187 29.9956C14.187 30.835 14.8674 31.5156 15.707 31.5156Z" fill="#1E1E24"/>
<path d="M39.0071 35.6962H15.707C14.8674 35.6962 14.187 36.3767 14.187 37.2162C14.187 38.0557 14.8674 38.7362 15.707 38.7362H39.0071C39.8468 38.7362 40.5271 38.0557 40.5271 37.2162C40.5271 36.3767 39.8466 35.6962 39.0071 35.6962Z" fill="#1E1E24"/>
<path d="M39.0071 42.917H15.707C14.8674 42.917 14.187 43.5976 14.187 44.437C14.187 45.2765 14.8674 45.9571 15.707 45.9571H39.0071C39.8468 45.9571 40.5271 45.2765 40.5271 44.437C40.5271 43.5976 39.8466 42.917 39.0071 42.917Z" fill="#1E1E24"/>
<path d="M27.357 50.1378H15.707C14.8674 50.1378 14.187 50.8183 14.187 51.6578C14.187 52.4973 14.8674 53.1778 15.707 53.1778H27.357C28.1966 53.1778 28.877 52.4973 28.877 51.6578C28.877 50.8183 28.1966 50.1378 27.357 50.1378Z" fill="#1E1E24"/>
<path d="M55.9929 17.074H79.2928C80.1325 17.074 80.8129 16.3934 80.8129 15.554C80.8129 14.7145 80.1325 14.0339 79.2928 14.0339H55.9929C55.1533 14.0339 54.4729 14.7145 54.4729 15.554C54.4729 16.3934 55.1535 17.074 55.9929 17.074Z" fill="#1E1E24"/>
<path d="M55.9929 24.2948H79.2928C80.1325 24.2948 80.8129 23.6142 80.8129 22.7747C80.8129 21.9353 80.1325 21.2547 79.2928 21.2547H55.9929C55.1533 21.2547 54.4729 21.9353 54.4729 22.7747C54.4729 23.6142 55.1535 24.2948 55.9929 24.2948Z" fill="#1E1E24"/>
<path d="M55.9929 31.5156H67.6427C68.4823 31.5156 69.1627 30.835 69.1627 29.9956C69.1627 29.1561 68.4823 28.4755 67.6427 28.4755H55.9929C55.1533 28.4755 54.4729 29.1561 54.4729 29.9956C54.4729 30.835 55.1535 31.5156 55.9929 31.5156Z" fill="#1E1E24"/>
<path d="M55.9929 38.7362H79.2928C80.1325 38.7362 80.8129 38.0557 80.8129 37.2162C80.8129 36.3767 80.1325 35.6962 79.2928 35.6962H55.9929C55.1533 35.6962 54.4729 36.3767 54.4729 37.2162C54.4729 38.0557 55.1535 38.7362 55.9929 38.7362Z" fill="#1E1E24"/>
<path d="M55.9929 45.9571H79.2928C80.1325 45.9571 80.8129 45.2765 80.8129 44.437C80.8129 43.5976 80.1325 42.917 79.2928 42.917H55.9929C55.1533 42.917 54.4729 43.5976 54.4729 44.437C54.4729 45.2765 55.1535 45.9571 55.9929 45.9571Z" fill="#1E1E24"/>
<path d="M55.9929 53.1778H67.6427C68.4823 53.1778 69.1627 52.4973 69.1627 51.6578C69.1627 50.8183 68.4823 50.1378 67.6427 50.1378H55.9929C55.1533 50.1378 54.4729 50.8183 54.4729 51.6578C54.4729 52.4973 55.1535 53.1778 55.9929 53.1778Z" fill="#1E1E24"/>
</svg>
