<svg width="1674" height="261" viewBox="0 0 1674 261" fill="none" xmlns="http://www.w3.org/2000/svg">
<path d="M385.941 63.5991C381.558 63.5991 377.722 66.5214 376.444 70.5397L345.576 170.996L314.892 70.1744C313.796 66.3388 310.691 63.5991 306.673 63.5991C301.924 63.5991 298.271 67.0694 298.636 71.6356C298.636 72.5488 298.819 73.462 299.184 74.7406L334.983 184.694C336.992 190.356 341.193 192.913 345.759 192.913C350.69 192.913 355.074 189.443 356.535 184.694L385.941 91.5441L415.348 184.694C416.809 189.443 421.192 192.913 426.124 192.913C430.69 192.913 434.891 190.356 436.9 184.694L472.699 74.7406C473.064 73.462 473.247 72.5488 473.247 71.6356C473.612 67.0694 469.959 63.5991 465.21 63.5991C461.192 63.5991 458.087 66.3388 456.991 70.1744L426.306 170.996L395.439 70.5397C394.16 66.5214 390.325 63.5991 385.941 63.5991ZM533.308 97.0235C504.997 97.0235 486.55 116.567 486.55 145.425C486.55 174.283 504.997 193.826 533.308 193.826C561.435 193.826 580.065 174.283 580.065 145.425C580.065 116.567 561.435 97.0235 533.308 97.0235ZM533.308 178.667C519.244 178.667 503.171 169.534 503.171 145.242C503.171 121.133 519.244 112.183 533.308 112.183C547.189 112.183 563.444 121.133 563.444 145.242C563.444 169.534 547.189 178.667 533.308 178.667ZM649.544 97.0235H648.631C636.028 97.0235 626.53 105.425 619.955 114.192V106.339C619.955 101.772 616.12 97.9367 611.553 97.9367C606.987 97.9367 603.334 101.772 603.334 106.339V184.694C603.334 189.26 606.987 192.913 611.553 192.913C616.12 192.913 619.955 189.26 619.955 184.694V129.169C626.348 119.672 636.211 113.096 648.265 113.096H649.179C653.927 113.096 657.58 109.991 657.58 105.243C657.58 100.676 654.11 97.0235 649.544 97.0235ZM684.926 124.969C684.926 117.663 692.415 112.183 705.931 112.183C713.967 112.183 720.908 113.644 726.752 115.471C727.483 115.654 728.213 115.836 729.127 115.836C733.328 115.836 736.433 112.366 736.433 108.53C736.433 105.791 734.606 102.686 731.136 101.59C723.647 98.85 714.698 97.0235 704.652 97.0235C680.908 97.0235 669.036 109.444 669.036 125.882C669.036 159.124 723.83 149.809 723.83 165.516C723.83 173.735 717.62 178.484 703.556 178.484C692.78 178.484 685.291 175.927 678.716 173.005C677.438 172.457 676.524 172.274 675.428 172.274C671.228 172.274 668.305 175.927 668.305 179.58C668.305 182.137 669.584 184.329 671.41 185.607C680.725 190.721 691.319 193.826 704.652 193.826C728.031 193.826 739.903 181.589 739.903 166.795C739.903 130.996 684.926 143.964 684.926 124.969ZM812.317 97.0235C796.061 97.0235 786.016 105.425 778.344 113.827V66.1561C778.344 61.4073 774.509 57.7544 769.943 57.7544C765.376 57.7544 761.723 61.4073 761.723 66.1561V184.694C761.723 189.26 765.376 192.913 769.943 192.913C774.509 192.913 778.344 189.26 778.344 184.694V129.9C785.65 120.768 795.148 112.366 808.298 112.366C822.545 112.366 828.39 120.768 828.39 134.649V184.694C828.39 189.26 832.043 192.913 836.609 192.913C841.175 192.913 845.011 189.26 845.011 184.694V132.822C845.011 113.279 833.138 97.0235 812.317 97.0235ZM881.974 97.9367C877.408 97.9367 873.755 101.59 873.755 106.339V184.694C873.755 189.26 877.408 192.913 881.974 192.913C886.723 192.913 890.376 189.26 890.376 184.694V106.339C890.376 101.59 886.723 97.9367 881.974 97.9367ZM892.019 69.8091C892.019 64.695 887.818 60.4941 882.704 60.4941C882.339 60.4941 881.974 60.4941 881.608 60.4941C876.494 60.4941 872.293 64.695 872.293 69.8091C872.293 70.357 872.293 70.357 872.293 70.5397C872.293 75.6538 876.494 79.8547 881.608 79.8547C882.339 79.8547 882.522 79.8547 882.704 79.8547C887.818 79.8547 892.019 75.6538 892.019 70.5397C892.019 70.357 892.019 69.9917 892.019 69.8091ZM967.788 193.826C989.888 193.826 1011.99 176.475 1011.99 145.425C1011.99 114.375 989.888 97.0235 967.788 97.0235C955.003 97.0235 944.957 102.138 936.555 110.905V106.156C936.555 101.59 932.902 97.9367 928.153 97.9367C923.587 97.9367 919.934 101.59 919.934 106.156V226.52C919.934 231.269 923.587 234.922 928.153 234.922C932.902 234.922 936.555 231.269 936.555 226.52V179.945C944.957 188.712 955.003 193.826 967.788 193.826ZM965.413 112.549C982.765 112.549 995.368 123.873 995.368 145.425C995.368 166.977 982.765 178.301 965.413 178.301C953.541 178.301 943.678 172.457 936.555 164.603V126.247C943.678 118.393 953.541 112.549 965.413 112.549ZM1140.42 181.041L1093.84 71.0876C1092.2 67.252 1088.73 63.5991 1083.25 63.5991H1081.42C1075.94 63.5991 1072.47 67.252 1070.83 71.0876L1024.25 181.041C1023.7 182.32 1023.34 183.598 1023.34 184.694C1023.34 189.26 1026.44 192.913 1031.56 192.913C1035.03 192.913 1037.95 191.087 1039.41 187.799L1051.28 159.306H1113.38L1125.26 187.799C1126.72 191.087 1129.64 192.913 1133.11 192.913C1138.22 192.913 1141.33 189.26 1141.33 184.694C1141.33 183.598 1140.96 182.32 1140.42 181.041ZM1057.68 144.146L1082.33 84.7862L1106.99 144.146H1057.68ZM1223.18 97.9367C1219.89 97.9367 1216.79 99.9459 1215.69 102.686L1187.74 173.553L1159.8 102.686C1158.7 99.9459 1155.6 97.9367 1152.31 97.9367C1147.75 97.9367 1144.09 101.772 1144.09 106.339C1144.09 107.8 1144.46 108.896 1145.01 110.174L1176.79 186.155C1178.43 189.808 1182.27 192.913 1186.83 192.913H1188.66C1193.22 192.913 1197.06 189.808 1198.7 186.155L1230.48 110.174C1231.03 108.896 1231.4 107.8 1231.4 106.339C1231.4 101.772 1227.74 97.9367 1223.18 97.9367ZM1320.61 171.909C1319.33 171.909 1318.42 172.091 1317.32 172.639C1310.56 176.11 1303.62 178.301 1292.66 178.301C1272.94 178.301 1262.53 167.708 1260.7 151.27H1322.62C1327.73 151.27 1331.02 147.617 1331.02 143.051C1331.02 118.759 1315.68 97.0235 1287.55 97.0235C1257.23 97.0235 1243.9 120.768 1243.9 145.425C1243.9 176.11 1261.43 193.826 1291.2 193.826C1307.09 193.826 1315.13 190.356 1323.17 185.79C1325.72 184.329 1327.92 181.954 1327.92 179.032C1327.92 174.831 1324.44 171.909 1320.61 171.909ZM1287.55 111.087C1299.24 111.087 1313.49 118.759 1314.58 137.754H1260.7C1261.8 118.759 1275.86 111.087 1287.55 111.087ZM1404.14 97.0235C1387.88 97.0235 1377.83 105.425 1370.16 113.827V106.339C1370.16 101.59 1366.33 97.9367 1361.76 97.9367C1357.2 97.9367 1353.54 101.59 1353.54 106.339V184.694C1353.54 189.26 1357.2 192.913 1361.76 192.913C1366.33 192.913 1370.16 189.26 1370.16 184.694V129.9C1377.47 120.768 1386.97 112.366 1400.12 112.366C1414.36 112.366 1420.21 120.768 1420.21 134.649V184.694C1420.21 189.26 1423.86 192.913 1428.43 192.913C1432.99 192.913 1436.83 189.26 1436.83 184.694V132.822C1436.83 113.279 1424.96 97.0235 1404.14 97.0235ZM1496.81 193.826C1513.06 193.826 1523.11 185.425 1530.78 177.023V184.511C1530.78 189.26 1534.61 192.913 1539.18 192.913C1543.75 192.913 1547.4 189.26 1547.4 184.511V106.156C1547.4 101.59 1543.75 97.9367 1539.18 97.9367C1534.61 97.9367 1530.78 101.59 1530.78 106.156V160.95C1523.47 170.082 1513.98 178.484 1500.82 178.484C1486.58 178.484 1480.73 170.082 1480.73 156.201V106.156C1480.73 101.59 1477.08 97.9367 1472.51 97.9367C1467.95 97.9367 1464.11 101.59 1464.11 106.156V158.028C1464.11 177.571 1475.98 193.826 1496.81 193.826ZM1647.55 171.909C1646.28 171.909 1645.36 172.091 1644.27 172.639C1637.51 176.11 1630.57 178.301 1619.61 178.301C1599.88 178.301 1589.47 167.708 1587.65 151.27H1649.56C1654.68 151.27 1657.97 147.617 1657.97 143.051C1657.97 118.759 1642.62 97.0235 1614.5 97.0235C1584.18 97.0235 1570.84 120.768 1570.84 145.425C1570.84 176.11 1588.38 193.826 1618.15 193.826C1634.04 193.826 1642.08 190.356 1650.11 185.79C1652.67 184.329 1654.86 181.954 1654.86 179.032C1654.86 174.831 1651.39 171.909 1647.55 171.909ZM1614.5 111.087C1626.19 111.087 1640.43 118.759 1641.53 137.754H1587.65C1588.74 118.759 1602.81 111.087 1614.5 111.087Z" fill="#1E1E24"/>
<rect x="29.9064" y="46.2186" width="201.188" height="160.406" fill="#820024"/>
<path d="M229.707 32.625H153.091C144.652 32.625 137.024 35.9195 131.201 41.1622C125.378 35.9195 117.749 32.625 109.311 32.625H32.6944C26.6418 32.625 21.7493 37.5284 21.7493 43.5702V207.748C21.7493 213.8 26.6418 218.693 32.6944 218.693H95.7167C101.474 218.693 107.122 221.035 111.193 225.107L123.463 237.376C123.561 237.475 123.693 237.508 123.791 237.606C124.732 238.471 125.783 239.237 127.009 239.751C127.02 239.751 127.02 239.751 127.031 239.751C128.355 240.299 129.767 240.583 131.201 240.583C132.635 240.583 134.047 240.299 135.371 239.751C135.382 239.751 135.382 239.751 135.393 239.751C136.619 239.237 137.669 238.471 138.611 237.606C138.709 237.508 138.841 237.475 138.939 237.376L151.209 225.107C155.28 221.035 160.928 218.693 166.685 218.693H229.707C235.76 218.693 240.652 213.8 240.652 207.748V43.5702C240.652 37.5284 235.76 32.625 229.707 32.625ZM95.7167 196.802H43.6396V54.5153H109.311C115.352 54.5153 120.256 59.4297 120.256 65.4605V204.344C113.054 199.495 104.462 196.802 95.7167 196.802ZM218.762 196.802H166.685C157.94 196.802 149.348 199.495 142.146 204.344V65.4605C142.146 59.4297 147.049 54.5153 153.091 54.5153H218.762V196.802Z" fill="#820024"/>
<path d="M43.0006 196.476C33.3164 -91.6288 75.6654 231.999 217.179 108.127L219.01 196.381C147.867 209.612 116.683 204.087 43.0006 196.476Z" fill="#5C313D"/>
<path d="M43.0002 196.47C39.9994 139.578 96.6471 76.8952 100.217 73.6395C124.02 51.9293 159.593 192.653 217.178 143.263L219.009 196.47C152.252 207.811 113.724 207.869 43.0002 196.47Z" fill="#A56A7B"/>
<path d="M43.0002 196.47C113.477 202.027 151.998 55.2666 219.009 49.7628V196.47C152.252 207.81 113.724 207.868 43.0002 196.47Z" fill="#2F0813" fill-opacity="0.7"/>
<line x1="65.6541" y1="87.3763" x2="65.6541" y2="170.172" stroke="white" stroke-width="3.44982" stroke-linecap="round" stroke-linejoin="round"/>
<line x1="100.152" y1="70.1269" x2="100.152" y2="118.424" stroke="white" stroke-width="3.44982" stroke-linecap="round" stroke-linejoin="round"/>
<line x1="131.2" y1="170.171" x2="131.2" y2="217.258" stroke="white" stroke-width="3.44982" stroke-linecap="round" stroke-linejoin="round"/>
<line x1="131.2" y1="51.4876" x2="131.2" y2="101.176" stroke="white" stroke-width="3.44982" stroke-linecap="round" stroke-linejoin="round"/>
<line x1="165.699" y1="70.1269" x2="165.699" y2="118.424" stroke="white" stroke-width="3.44982" stroke-linecap="round" stroke-linejoin="round"/>
<line x1="200.196" y1="87.3763" x2="200.196" y2="170.172" stroke="white" stroke-width="3.44982" stroke-linecap="round" stroke-linejoin="round"/>
<rect x="57.03" y="85.6536" width="17.2491" height="86.2455" rx="8.62455" fill="white"/>
<rect x="191.572" y="85.6511" width="17.2491" height="86.2455" rx="8.62455" fill="white"/>
<rect x="91.5276" y="123.599" width="17.2491" height="68.9964" rx="8.62455" fill="white"/>
<rect x="157.075" y="123.599" width="17.2491" height="68.9964" rx="8.62455" fill="white"/>
<rect x="122.576" y="106.35" width="17.2491" height="58.6469" rx="8.62455" fill="white"/>
</svg>
