<svg width="88" height="88" viewBox="0 0 88 88" fill="none" xmlns="http://www.w3.org/2000/svg">
<path d="M73.8151 22.9995L73.8172 23.0015C72.3363 24.7215 71.4388 26.962 71.4388 29.4133V41.6252C69.9639 41.6252 68.5296 41.7953 67.1541 42.1174C67.6971 40.5919 67.9705 38.9996 67.9705 37.4012C67.9705 34.3442 66.9798 31.2871 64.9966 28.7567V10.3844C64.9966 7.94924 66.9697 5.97406 69.4048 5.97406C71.84 5.97406 73.8151 7.94924 73.8151 10.3844V22.9995Z" fill="#FFD3AE"/>
<path d="M64.9967 10.3843V28.7569C64.6483 28.3112 64.2674 27.8817 63.8582 27.4724C61.6905 25.3048 58.99 23.994 56.1802 23.5403V16.6058V5.9295C56.1802 3.49438 58.1514 1.5192 60.5884 1.5192C63.0235 1.5192 64.9967 3.49438 64.9967 5.9295V10.3843Z" fill="#FFD3AE"/>
<path d="M56.1802 16.6059V23.5405C55.4346 23.421 54.683 23.3602 53.9295 23.3602C51.6687 23.3602 49.4078 23.9032 47.3596 24.9891V24.987V16.6059C47.3596 14.1707 49.3348 12.1956 51.7699 12.1956C54.205 12.1956 56.1802 14.1707 56.1802 16.6059Z" fill="#FFD3AE"/>
<path d="M40.6396 16.6059V24.9868C37.9107 23.5403 34.8031 23.0582 31.821 23.5403V16.6059C31.821 14.1707 33.7962 12.1956 36.2293 12.1956C38.6644 12.1956 40.6396 14.1707 40.6396 16.6059Z" fill="#FFD3AE"/>
<path d="M35.8744 21.0607V16.6059C35.8744 14.901 36.8412 13.4227 38.2561 12.6888C37.6494 12.3741 36.9606 12.1956 36.2297 12.1956C33.7945 12.1956 31.8235 14.1707 31.8235 16.6059V21.0607V39.4332C32.1719 38.9876 32.5527 38.558 32.962 38.1488C33.8523 37.2585 34.8337 36.5151 35.8746 35.9139L35.8744 21.0607Z" fill="#E5B48F"/>
<path d="M51.4105 21.0607V16.6059C51.4105 14.901 52.3773 13.4227 53.7922 12.6888C53.1855 12.3741 52.4968 12.1956 51.7658 12.1956C49.3307 12.1956 47.3596 14.1707 47.3596 16.6059V21.0607V39.4332C47.708 38.9876 48.0889 38.558 48.4981 38.1488C49.3884 37.2585 50.3698 36.5151 51.4107 35.9139L51.4105 21.0607Z" fill="#E5B48F"/>
<path d="M60.2316 10.3843V5.9295C60.2316 4.22467 61.1984 2.74638 62.6132 2.01248C62.0065 1.69777 61.3178 1.5192 60.5868 1.5192C58.1517 1.5192 56.1807 3.49438 56.1807 5.9295V10.3843V28.7569C56.5291 28.3112 56.9099 27.8817 57.3192 27.4724C58.2095 26.5821 59.1909 25.8388 60.2317 25.2376L60.2316 10.3843Z" fill="#E5B48F"/>
<path d="M69.0482 14.8394V10.3844C69.0482 8.67954 70.015 7.20125 71.4299 6.46734C70.8232 6.15264 70.1345 5.97406 69.4035 5.97406C66.9684 5.97406 64.9973 7.94924 64.9973 10.3844V14.8392V33.2117C65.3457 32.7661 68.0075 42.3793 69.0484 41.7781L69.0482 14.8394Z" fill="#E5B48F"/>
<path d="M67.9708 37.4014C67.9708 38.9998 67.6973 40.592 67.1544 42.1176C63.7002 42.9259 60.6128 44.6885 58.1878 47.1133C55.236 50.0649 53.265 53.9972 52.8051 58.3813L44.0654 67.1228L44.0006 67.1876L35.1941 58.3811L35.1819 58.2656C34.3007 50.3506 28.4884 43.9245 20.8893 42.1295C20.8731 42.1253 20.8589 42.1214 20.8427 42.1173C20.2998 40.5917 20.0303 38.9995 20.0303 37.401V37.2754C20.0303 37.2228 20.0303 37.168 20.0323 37.1154C20.0932 34.1536 21.0837 31.2079 23.0042 28.7566C23.3526 28.3109 23.7335 27.8814 24.1427 27.4722C26.3104 25.3045 29.0109 23.9938 31.8207 23.54C33.3421 23.2949 34.894 23.2989 36.4134 23.5562C37.874 23.7992 39.3022 24.2774 40.6392 24.9865C41.8487 25.6267 42.9831 26.4552 44.0001 27.4723C45.0171 26.4554 46.1516 25.6267 47.359 24.9886C49.4073 23.9027 51.6681 23.3597 53.9289 23.3597C54.6826 23.3597 55.4342 23.4206 56.1796 23.54C58.9894 23.9938 61.6899 25.3045 63.8576 27.4722C64.2669 27.8814 64.6477 28.3109 64.9961 28.7566C66.9801 31.2874 67.9708 34.3444 67.9708 37.4014Z" fill="#962343"/>
<path d="M44.1019 67.1878L44.0512 67.1371L35.182 58.2658C34.3008 50.3508 28.4885 43.9247 20.8895 42.1296C20.3224 40.5799 20.0367 38.951 20.0305 37.3223V37.2757C20.0305 37.2231 20.0305 37.1683 20.0326 37.1157C20.0711 33.5583 21.4487 30.0171 24.1614 27.3044C27.5891 23.8747 32.3459 22.5822 36.7764 23.4228C36.6549 23.4634 36.5353 23.5058 36.4138 23.5565C35.7615 23.8219 35.1233 24.2291 34.5156 24.7761C33.7984 25.4224 33.1238 26.2651 32.5201 27.3044C29.3214 32.8108 29.3214 41.7388 32.5201 47.245L44.0655 67.1228L44.1019 67.1878Z" fill="#820024"/>
<path d="M67.1546 42.1175C68.5301 41.7954 69.9644 41.6253 71.4392 41.6253V29.4134C71.4392 26.9621 72.3368 24.7216 73.8176 23.0015C73.9776 22.8152 74.1457 22.6349 74.318 22.4626C76.0967 20.6818 78.554 19.5818 81.2708 19.5818C82.2311 19.5818 83.011 20.3618 83.011 21.3221V59.4184C83.011 61.1059 82.4741 62.7509 81.4755 64.1123L70.8863 78.5507V86.4799H44.001V67.1877L52.8054 58.3812C53.2654 53.9972 55.2364 50.065 58.1882 47.1132C60.613 44.6884 63.7004 42.9259 67.1546 42.1175Z" fill="#FFD3AE"/>
<path d="M50.3175 60.8691V86.48H44.001V67.1877L50.3175 60.8691Z" fill="#E5B48F"/>
<path d="M31.8211 16.6058V23.5405C29.0113 23.9942 26.3108 25.3049 24.1431 27.4726C23.7339 27.8818 23.353 28.3114 23.0046 28.757V10.3843V5.9295C23.0046 3.49438 24.9759 1.5192 27.4108 1.5192C29.848 1.5192 31.8211 3.49438 31.8211 5.9295V16.6058Z" fill="#FFD3AE"/>
<path d="M27.0553 10.3843V5.9295C27.0553 4.22467 28.0221 2.74638 29.437 2.01248C28.8303 1.69777 28.1416 1.5192 27.4106 1.5192C24.9755 1.5192 23.0044 3.49438 23.0044 5.9295V10.3843V28.7569C23.3528 28.3112 23.7337 27.8817 24.1429 27.4724C25.0332 26.5821 26.0146 25.8388 27.0555 25.2376V10.3843H27.0553Z" fill="#E5B48F"/>
<path d="M23.0043 28.757C21.021 31.2873 20.0304 34.3443 20.0304 37.4014C20.0304 38.9999 20.2999 40.5921 20.8428 42.1177C19.4673 41.7956 18.0349 41.6254 16.5621 41.6254V29.4136C16.5621 26.9623 15.6646 24.7217 14.1816 23.0016L14.1837 22.9995V10.3843C14.1837 7.94915 16.1589 5.97397 18.594 5.97397C21.0291 5.97397 23.0043 7.94915 23.0043 10.3843V28.757Z" fill="#FFD3AE"/>
<path d="M18.3444 15.2464V10.7916C18.3444 9.0868 19.3112 7.6085 20.726 6.8746C20.1193 6.5599 19.4306 6.38132 18.6996 6.38132C16.2645 6.38132 14.2935 8.3565 14.2935 10.7916V15.2464V33.619C14.6418 33.1733 15.0227 42.0345 15.432 41.6253C16.3223 40.7349 17.3037 42.7189 18.3445 42.1175V15.2464H18.3444Z" fill="#E5B48F"/>
<path d="M35.1944 58.3812L44.0009 67.1877V86.4801H17.1135V78.5508L6.5243 64.1125C5.5276 62.7511 4.98877 61.1061 4.98877 59.4186V21.3221C4.98877 20.842 5.18333 20.4063 5.49924 20.0923C5.81325 19.7762 6.25085 19.5818 6.73089 19.5818C9.70896 19.5818 12.379 20.9068 14.182 23.0015C15.6649 24.7214 16.5625 26.962 16.5625 29.4134V41.6253C18.0353 41.6253 19.4675 41.7954 20.8432 42.1175C28.5029 43.9064 34.3556 50.3973 35.1944 58.3812Z" fill="#FFD3AE"/>
<path d="M11.2845 64.1123C10.2878 62.7509 9.74901 61.1059 9.74901 59.4184V21.3221C9.74901 20.8946 9.90387 20.5033 10.1605 20.2008C9.09211 19.8027 7.93745 19.5818 6.73089 19.5818C6.25085 19.5818 5.81325 19.7764 5.49924 20.0923C5.18316 20.4063 4.98877 20.8419 4.98877 21.3221V59.4184C4.98877 61.1059 5.5276 62.7509 6.5243 64.1123L17.1135 78.5507V86.4799H21.8739V78.5507L11.2845 64.1123Z" fill="#E5B48F"/>
<path d="M72.1619 43.0294C74.56 43.0294 76.5043 41.0851 76.5043 38.6869V29.4136C76.5043 26.9623 77.4018 24.7218 78.8827 23.0018C79.0427 22.8155 79.2108 22.6352 79.383 22.463C80.3127 21.5323 81.429 20.79 82.6694 20.291C82.3523 19.862 81.8444 19.5822 81.2705 19.5822C78.5539 19.5822 76.0964 20.6822 74.3177 22.463C74.1455 22.6352 73.9774 22.8155 73.8174 23.0018C72.3365 24.7218 71.439 26.9623 71.439 29.4136V43.0295H72.1619V43.0294Z" fill="#E5B48F"/>
<path d="M50.3176 60.869V86.4799H44.001V67.1876L50.3176 60.869Z" fill="#E5B48F"/>
<path d="M30.1572 60.4481C29.3895 60.4481 28.73 59.8678 28.648 59.0874C28.108 53.9456 24.3693 49.7023 19.3456 48.5291C18.5283 48.3383 18.0206 47.521 18.2116 46.704C18.4025 45.8869 19.2198 45.3793 20.0367 45.5699C26.3199 47.0372 30.9951 52.342 31.6702 58.7699C31.7579 59.6044 31.1524 60.3522 30.3179 60.4397C30.2638 60.4453 30.2103 60.4481 30.1572 60.4481Z" fill="white"/>
<path d="M77.9461 60.9381C77.107 60.9381 76.4268 60.2578 76.4268 59.4187V49.1191C76.4268 48.28 77.107 47.5997 77.9461 47.5997C78.7852 47.5997 79.4655 48.28 79.4655 49.1191V59.4187C79.4655 60.2578 78.7852 60.9381 77.9461 60.9381Z" fill="white"/>
<path d="M40.4194 32.5733C40.0306 32.5733 39.6417 32.425 39.345 32.1282C38.8132 31.5964 38.2125 31.1516 37.5594 30.8059C36.4962 30.2424 35.2876 29.9447 34.0636 29.9447C33.6644 29.9447 33.2634 29.9766 32.872 30.0399C32.0431 30.174 31.2635 29.6109 31.1296 28.7825C30.9957 27.954 31.5586 27.1739 32.387 27.04C32.9382 26.9508 33.5023 26.9058 34.0635 26.9058C35.7819 26.9058 37.4826 27.3257 38.9817 28.1204C39.902 28.6077 40.7473 29.2333 41.4936 29.9794C42.0869 30.5727 42.0869 31.5347 41.4936 32.128C41.1971 32.425 40.8082 32.5733 40.4194 32.5733Z" fill="white"/>
<path d="M62.9058 38.9208C62.0667 38.9208 61.3864 38.2405 61.3864 37.4014C61.3864 35.7394 60.8283 34.1121 59.8148 32.8187C59.6281 32.5802 59.4224 32.3483 59.2026 32.1283C58.0862 31.0123 56.6784 30.2903 55.1303 30.0402C54.7333 29.9766 54.3285 29.9441 53.9293 29.9441C53.0902 29.9441 52.4099 29.2639 52.4099 28.4248C52.4099 27.5857 53.0902 26.9054 53.9293 26.9054C54.4893 26.9054 55.0559 26.9508 55.6131 27.0401C57.7972 27.3928 59.7808 28.4093 61.3512 29.9797C61.658 30.2865 61.9462 30.6114 62.2075 30.9457C63.6373 32.7699 64.4253 35.0633 64.4253 37.4016C64.4252 38.2404 63.7451 38.9208 62.9058 38.9208Z" fill="white"/>
<path d="M81.2696 18.062C79.0952 18.062 77.0626 18.6776 75.3346 19.742V10.384C75.3346 7.11458 72.6748 4.45482 69.4054 4.45482C68.339 4.45482 67.3385 4.73927 66.4729 5.23393C66.1278 2.29126 63.6215 0 60.589 0C57.3196 0 54.6598 2.65976 54.6598 5.92916V11.4309C53.804 10.951 52.8185 10.6758 51.7696 10.6758C48.5002 10.6758 45.8404 13.3356 45.8404 16.605V24.1058C45.2007 24.4966 44.5847 24.9327 44.0005 25.4184C43.4159 24.9323 42.7998 24.4957 42.1592 24.1046V16.605C42.1592 13.3356 39.4994 10.6758 36.23 10.6758C35.1811 10.6758 34.1954 10.9507 33.3398 11.4309V5.92916C33.3399 2.65976 30.6802 0 27.4108 0C24.3782 0 21.8721 2.29126 21.5267 5.2341C20.6613 4.73944 19.6606 4.45499 18.5941 4.45499C15.3247 4.45499 12.665 7.11475 12.665 10.3842V19.7422C10.9369 18.6778 8.90419 18.0621 6.72997 18.0621C4.93182 18.0621 3.46899 19.525 3.46899 21.3231V59.4193C3.46899 61.4442 4.10184 63.3776 5.29929 65.0106L15.5934 79.0477V86.4803C15.5934 87.3194 16.2737 87.9997 17.1127 87.9997C17.9518 87.9997 18.6321 87.3194 18.6321 86.4803V78.5502C18.6321 78.227 18.529 77.9122 18.338 77.6518L7.74988 63.2134C6.93725 62.1054 6.50774 60.7933 6.50774 59.4191V21.3231C6.50774 21.2006 6.60743 21.1009 6.72997 21.1009C11.3135 21.1009 15.0423 24.8297 15.0423 29.4133V41.626C15.0423 42.4651 15.7226 43.1454 16.5617 43.1454C26.0559 43.1454 33.7799 50.8694 33.7799 60.3636V65.3235C33.7799 66.1626 34.4602 66.8429 35.2993 66.8429C36.1384 66.8429 36.8187 66.1626 36.8187 65.3235V62.154L42.4806 67.8159V86.4803C42.4806 87.3194 43.1609 87.9997 44 87.9997C44.8391 87.9997 45.5193 87.3194 45.5193 86.4803V67.8159L51.1804 62.1549V65.3237C51.1804 66.1628 51.8607 66.8431 52.6997 66.8431C53.5388 66.8431 54.2191 66.1628 54.2191 65.3237V60.3638C54.2191 50.8696 61.9432 43.1455 71.4375 43.1455C72.2766 43.1455 72.9569 42.4652 72.9569 41.6262V29.4134C72.9569 24.8299 76.6857 21.1011 81.2693 21.1011C81.3918 21.1011 81.4915 21.2007 81.4915 21.3233V59.4195C81.4915 60.7936 81.062 62.1055 80.2494 63.2138L69.6612 77.6521C69.4701 77.9127 69.3671 78.2274 69.3671 78.5505V86.4806C69.3671 87.3197 70.0474 88 70.8865 88C71.7256 88 72.4059 87.3197 72.4059 86.4806V79.0481L82.7 65.0106C83.8974 63.3778 84.5302 61.4442 84.5302 59.4193V21.3231C84.5308 19.525 83.0678 18.062 81.2696 18.062ZM57.6987 5.92916C57.6987 4.33537 58.9953 3.03892 60.589 3.03892C62.181 3.03892 63.4763 4.33554 63.4763 5.92916V10.384V25.1178C61.7555 23.7754 59.7949 22.8184 57.6985 22.2985V16.605V5.92916H57.6987ZM48.8793 16.605C48.8793 15.0112 50.1759 13.7147 51.7696 13.7147C53.3633 13.7147 54.6598 15.0114 54.6598 16.605V21.8578C54.4169 21.8466 54.1734 21.8399 53.9286 21.8399C52.1839 21.8399 50.4839 22.1289 48.8791 22.678L48.8793 16.605ZM36.2302 13.7147C37.824 13.7147 39.1204 15.0114 39.1204 16.605V22.6777C37.5165 22.1292 35.8167 21.8408 34.0716 21.8408C33.8267 21.8408 33.5828 21.8475 33.34 21.8587V16.605C33.34 15.0112 34.6364 13.7147 36.2302 13.7147ZM24.5235 5.92916C24.5235 4.33537 25.8189 3.03892 27.4108 3.03892C29.0046 3.03892 30.301 4.33554 30.301 5.92916V16.6052V22.299C28.2036 22.8186 26.2431 23.7754 24.5233 25.1176V10.384V5.92916H24.5235ZM15.7039 22.4743V10.384C15.7039 8.79019 17.0005 7.49374 18.5941 7.49374C20.1878 7.49374 21.4844 8.79036 21.4844 10.384V28.2497C19.5546 30.891 18.5104 34.0645 18.5104 37.4011C18.5104 38.3549 18.5991 39.2991 18.7698 40.2276C18.5412 40.2027 18.3119 40.1802 18.0809 40.163V29.4133C18.0813 26.8014 17.1922 24.3947 15.7039 22.4743ZM51.3593 57.6789L44.0001 65.0381L36.6401 57.678C35.5657 49.6044 29.7182 43.0187 22.0359 40.8593C21.7147 39.7381 21.5493 38.5785 21.5493 37.4011C21.5493 34.0542 22.8518 30.9101 25.2173 28.5468C27.5823 26.1818 30.7266 24.8794 34.0716 24.8794C37.4166 24.8794 40.5609 26.1818 42.9259 28.5468C43.5191 29.14 44.4807 29.1401 45.0742 28.5475C47.4426 26.1817 50.5872 24.8789 53.9288 24.8789C57.2708 24.8789 60.4152 26.1817 62.7836 28.5475C65.1486 30.9101 66.4513 34.0542 66.4513 37.4011C66.4513 38.5754 66.2849 39.7352 65.9616 40.8599C58.2802 43.0199 52.4335 49.6056 51.3593 57.6789ZM69.9185 29.4131V40.1628C69.6873 40.18 69.4579 40.2025 69.2289 40.2274C69.4008 39.2976 69.4898 38.3531 69.4898 37.401C69.4898 34.064 68.4455 30.8902 66.515 28.2485V10.384C66.515 8.79019 67.8116 7.49374 69.4053 7.49374C70.9991 7.49374 72.2955 8.79036 72.2955 10.384V22.4743C70.8078 24.3947 69.9185 26.8014 69.9185 29.4131Z" fill="#1E1E24"/>
<path d="M77.9452 45.7764C78.7843 45.7764 79.4645 45.0962 79.4645 44.257C79.4645 43.4179 78.7843 42.7377 77.9452 42.7377C77.106 42.7377 76.4258 43.4179 76.4258 44.257C76.4258 45.0962 77.106 45.7764 77.9452 45.7764Z" fill="white"/>
</svg>
