<svg width="97" height="97" viewBox="0 0 97 97" fill="none" xmlns="http://www.w3.org/2000/svg">
<path d="M81.0052 81.0053H87.7126V28.3776H9.28711V81.0053H74.8137C75.6687 81.0053 76.3616 81.6981 76.3616 82.5532H79.4573C79.4573 81.6981 80.1501 81.0053 81.0052 81.0053ZM68.6222 39.2127H81.0052C81.8602 39.2127 82.5531 39.9056 82.5531 40.7606C82.5531 41.6157 81.8602 42.3085 81.0052 42.3085H68.6222C67.7672 42.3085 67.0743 41.6157 67.0743 40.7606C67.0743 39.9056 67.7672 39.2127 68.6222 39.2127ZM68.6222 48.5H81.0052C81.8602 48.5 82.5531 49.1928 82.5531 50.0478C82.5531 50.9029 81.8602 51.5957 81.0052 51.5957H68.6222C67.7672 51.5957 67.0743 50.9029 67.0743 50.0478C67.0743 49.1928 67.7672 48.5 68.6222 48.5ZM68.6222 57.7872H81.0052C81.8602 57.7872 82.5531 58.48 82.5531 59.3351C82.5531 60.1901 81.8602 60.883 81.0052 60.883H68.6222C67.7672 60.883 67.0743 60.1901 67.0743 59.3351C67.0743 58.48 67.7672 57.7872 68.6222 57.7872ZM61.9148 72.234C61.9148 73.0891 61.2219 73.7819 60.3669 73.7819H15.9946C15.1395 73.7819 14.4467 73.0891 14.4467 72.234V37.1489C14.4467 36.2939 15.1395 35.601 15.9946 35.601H42.3084C43.1634 35.601 43.8563 36.2939 43.8563 37.1489H46.952C46.952 36.2939 47.6448 35.601 48.4999 35.601H60.3669C61.2219 35.601 61.9148 36.2939 61.9148 37.1489V72.234ZM68.6222 70.1702C67.7672 70.1702 67.0743 69.4774 67.0743 68.6223C67.0743 67.7673 67.7672 67.0744 68.6222 67.0744H81.0052C81.8602 67.0744 82.5531 67.7673 82.5531 68.6223C82.5531 69.4774 81.8602 70.1702 81.0052 70.1702H68.6222Z" fill="white"/>
<path d="M42.3084 38.6968H17.5425V70.6862H58.8191V38.6968H48.4999C47.6449 38.6968 46.9521 38.004 46.9521 37.1489H43.8563C43.8563 38.004 43.1635 38.6968 42.3084 38.6968ZM49.1921 53.3071C49.7164 53.5694 50.0478 54.1051 50.0478 54.6915C50.0478 55.2778 49.7166 55.8138 49.1921 56.0759L28.5538 66.395C28.3353 66.5042 28.0981 66.5585 27.8616 66.5585C27.5787 66.5585 27.2966 66.4809 27.0479 66.3274C26.5915 66.0454 26.3138 65.5472 26.3138 65.0106V44.3723C26.3138 43.8357 26.5915 43.3375 27.0479 43.0556C27.5044 42.7735 28.0742 42.7479 28.554 42.9879L49.1921 53.3071Z" fill="#F2F2F2"/>
<path d="M93.9042 19.0904V9.80316H3.0957V19.0904H93.9042ZM88.7446 12.8989C88.7535 12.8989 88.7622 12.9001 88.7711 12.9001C89.5708 12.9136 90.2219 13.5327 90.2861 14.319C90.2896 14.3613 90.2925 14.4036 90.2925 14.4466C90.2925 14.4854 90.2894 14.5238 90.2867 14.5619C90.2304 15.3245 89.6226 15.9323 88.86 15.9887C88.8218 15.9916 88.7837 15.9944 88.7446 15.9944C88.7015 15.9944 88.6592 15.9913 88.6171 15.988C87.8642 15.9265 87.2649 15.327 87.2032 14.5741C87.1997 14.5318 87.1968 14.4895 87.1968 14.4466C87.1968 14.4078 87.1999 14.3694 87.2026 14.3312C87.2618 13.5306 87.9286 12.8989 88.7446 12.8989ZM81.5212 12.8989C81.5301 12.8989 81.5388 12.9001 81.5477 12.9001C82.3474 12.9136 82.9985 13.5327 83.0627 14.319C83.0662 14.3613 83.0691 14.4036 83.0691 14.4466C83.0691 14.4854 83.066 14.5238 83.0633 14.5619C83.007 15.3245 82.3992 15.9323 81.6366 15.9887C81.5984 15.9916 81.5602 15.9944 81.5212 15.9944C81.4781 15.9944 81.4358 15.9913 81.3937 15.988C80.6408 15.9265 80.0415 15.327 79.9798 14.5741C79.9763 14.5318 79.9734 14.4895 79.9734 14.4466C79.9734 14.4078 79.9765 14.3694 79.9791 14.3312C80.0384 13.5306 80.7052 12.8989 81.5212 12.8989ZM74.2978 12.8989C74.3067 12.8989 74.3154 12.9001 74.3242 12.9001C75.124 12.9136 75.7751 13.5327 75.8393 14.319C75.8428 14.3613 75.8457 14.4036 75.8457 14.4466C75.8457 14.4854 75.8426 14.5238 75.8399 14.5619C75.7836 15.3245 75.1758 15.9323 74.4132 15.9887C74.375 15.9916 74.3368 15.9944 74.2978 15.9944C74.2547 15.9944 74.2124 15.9913 74.1703 15.988C73.4174 15.9265 72.8181 15.327 72.7564 14.5741C72.7529 14.5318 72.75 14.4895 72.75 14.4466C72.75 14.4078 72.7531 14.3694 72.7557 14.3312C72.815 13.5306 73.4818 12.8989 74.2978 12.8989Z" fill="#798593"/>
<path d="M3.0957 22.1862V87.1968H93.9042V22.1862H3.0957ZM90.8085 82.5532C90.8085 83.4082 90.1156 84.101 89.2606 84.101H81.0053C80.1502 84.101 79.4574 83.4082 79.4574 82.5532H76.3617C76.3617 83.4082 75.6688 84.101 74.8138 84.101H7.73932C6.88428 84.101 6.19145 83.4082 6.19145 82.5532V26.8298C6.19145 25.9747 6.88428 25.2819 7.73932 25.2819H89.2606C90.1156 25.2819 90.8085 25.9747 90.8085 26.8298V82.5532Z" fill="#F4EEE2"/>
<path d="M95.4521 6.70743H1.54787C0.692828 6.70743 0 7.40026 0 8.2553V88.7447C0 89.5997 0.692828 90.2925 1.54787 90.2925H95.4521C96.3072 90.2925 97 89.5997 97 88.7447V8.2553C97 7.40026 96.3072 6.70743 95.4521 6.70743ZM93.9043 9.80317V19.0904H3.09574V9.80317H93.9043ZM3.09574 87.1968V22.1862H93.9043V87.1968H3.09574Z" fill="#1E1E24"/>
<path d="M79.9798 14.5743C80.0413 15.3272 80.6408 15.9266 81.3937 15.9883C81.4358 15.9918 81.4781 15.9947 81.5213 15.9947C81.5603 15.9947 81.5984 15.9916 81.6366 15.9889C82.3992 15.9326 83.007 15.3248 83.0633 14.5622C83.0662 14.524 83.0691 14.4858 83.0691 14.4468C83.0691 14.4039 83.066 14.3614 83.0627 14.3193C82.9983 13.5329 82.3474 12.9138 81.5477 12.9004C81.5388 12.9004 81.5303 12.8991 81.5213 12.8991C80.7052 12.8991 80.0384 13.5309 79.9792 14.3316C79.9763 14.3698 79.9734 14.408 79.9734 14.447C79.9734 14.4897 79.9765 14.5322 79.9798 14.5743Z" fill="#202C39"/>
<path d="M87.2032 14.5743C87.2647 15.3272 87.8642 15.9266 88.6171 15.9883C88.6592 15.9918 88.7015 15.9947 88.7446 15.9947C88.7837 15.9947 88.8218 15.9916 88.86 15.9889C89.6226 15.9326 90.2304 15.3248 90.2867 14.5622C90.2896 14.524 90.2925 14.4858 90.2925 14.4468C90.2925 14.4039 90.2894 14.3614 90.2861 14.3193C90.2217 13.5329 89.5708 12.9138 88.7711 12.9004C88.7622 12.9004 88.7537 12.8991 88.7446 12.8991C87.9286 12.8991 87.2618 13.5309 87.2026 14.3316C87.1997 14.3698 87.1968 14.408 87.1968 14.447C87.1968 14.4897 87.1999 14.5322 87.2032 14.5743Z" fill="#202C39"/>
<path d="M72.7564 14.5743C72.8179 15.3272 73.4174 15.9266 74.1703 15.9883C74.2124 15.9918 74.2547 15.9947 74.2979 15.9947C74.3369 15.9947 74.3751 15.9916 74.4132 15.9889C75.1758 15.9326 75.7836 15.3248 75.84 14.5622C75.8428 14.524 75.8457 14.4858 75.8457 14.4468C75.8457 14.4039 75.8426 14.3614 75.8393 14.3193C75.775 13.5329 75.124 12.9138 74.3243 12.9004C74.3154 12.9004 74.307 12.8991 74.2979 12.8991C73.4818 12.8991 72.815 13.5309 72.7558 14.3316C72.7529 14.3698 72.75 14.408 72.75 14.447C72.75 14.4897 72.7531 14.5322 72.7564 14.5743Z" fill="#202C39"/>
<path d="M68.6223 42.3085H81.0053C81.8604 42.3085 82.5532 41.6157 82.5532 40.7606C82.5532 39.9056 81.8604 39.2128 81.0053 39.2128H68.6223C67.7673 39.2128 67.0745 39.9056 67.0745 40.7606C67.0745 41.6157 67.7673 42.3085 68.6223 42.3085Z" fill="#1E1E24"/>
<path d="M68.6223 51.5957H81.0053C81.8604 51.5957 82.5532 50.9029 82.5532 50.0479C82.5532 49.1928 81.8604 48.5 81.0053 48.5H68.6223C67.7673 48.5 67.0745 49.1928 67.0745 50.0479C67.0745 50.9029 67.7673 51.5957 68.6223 51.5957Z" fill="#1E1E24"/>
<path d="M68.6223 60.883H81.0053C81.8604 60.883 82.5532 60.1901 82.5532 59.3351C82.5532 58.4801 81.8604 57.7872 81.0053 57.7872H68.6223C67.7673 57.7872 67.0745 58.4801 67.0745 59.3351C67.0745 60.1901 67.7673 60.883 68.6223 60.883Z" fill="#1E1E24"/>
<path d="M82.5532 68.6223C82.5532 67.7673 81.8604 67.0745 81.0053 67.0745H68.6223C67.7673 67.0745 67.0745 67.7673 67.0745 68.6223C67.0745 69.4774 67.7673 70.1702 68.6223 70.1702H81.0053C81.8604 70.1702 82.5532 69.4774 82.5532 68.6223Z" fill="#1E1E24"/>
<path d="M45.0388 54.6915L29.4097 46.877V62.506L45.0388 54.6915Z" fill="#820024"/>
<path d="M27.0478 43.0556C26.5915 43.3375 26.3137 43.8357 26.3137 44.3723V65.0106C26.3137 65.5472 26.5915 66.0454 27.0478 66.3273C27.2965 66.4809 27.5786 66.5585 27.8616 66.5585C28.0981 66.5585 28.3354 66.5042 28.5538 66.395L49.1921 56.0759C49.7163 55.8135 50.0478 55.2778 50.0478 54.6914C50.0478 54.1051 49.7165 53.5691 49.1921 53.307L28.5538 42.9879C28.074 42.7478 27.5043 42.7734 27.0478 43.0556ZM45.0386 54.6914L29.4095 62.5059V46.8767L45.0386 54.6914Z" fill="#082947"/>
<path d="M60.367 35.601H48.5C47.6449 35.601 46.9521 36.2938 46.9521 37.1489C46.9521 38.0039 47.6449 38.6968 48.5 38.6968H58.8191V70.6861H17.5425V38.6968H42.3085C43.1635 38.6968 43.8563 38.0039 43.8563 37.1489C43.8563 36.2938 43.1635 35.601 42.3085 35.601H15.9946C15.1396 35.601 14.4468 36.2938 14.4468 37.1489V72.234C14.4468 73.089 15.1396 73.7819 15.9946 73.7819H60.367C61.222 73.7819 61.9149 73.089 61.9149 72.234V37.1489C61.9149 36.2938 61.222 35.601 60.367 35.601Z" fill="#1E1E24"/>
<path d="M89.2606 25.2819H7.73928C6.88423 25.2819 6.19141 25.9747 6.19141 26.8298V82.5532C6.19141 83.4082 6.88423 84.1011 7.73928 84.1011H74.8137C75.6688 84.1011 76.3616 83.4082 76.3616 82.5532C76.3616 81.6982 75.6688 81.0053 74.8137 81.0053H9.28715V28.3777H87.7127V81.0053H81.0052C80.1502 81.0053 79.4574 81.6982 79.4574 82.5532C79.4574 83.4082 80.1502 84.1011 81.0052 84.1011H89.2606C90.1156 84.1011 90.8084 83.4082 90.8084 82.5532V26.8298C90.8084 25.9747 90.1156 25.2819 89.2606 25.2819Z" fill="#F4EEE2"/>
</svg>
