<svg width="93" height="93" viewBox="0 0 93 93" fill="none" xmlns="http://www.w3.org/2000/svg">
<path d="M78.3253 20.2649H60.6054V2.54531C60.6054 1.78842 59.9918 1.17484 59.2349 1.17484H14.6744C13.9175 1.17484 13.304 1.78842 13.304 2.54531V90.4548C13.304 91.2117 13.9175 91.8253 14.6744 91.8253H78.3253C79.082 91.8253 79.6958 91.2117 79.6958 90.4548V21.6356C79.6958 20.8787 79.0822 20.2649 78.3253 20.2649ZM34.6758 66.3435L34.6849 66.4013C34.9633 68.2149 33.4408 70.2895 31.0641 71.3346C30.1357 71.7431 29.1503 71.9587 28.2143 71.9587C26.5058 71.9587 25.1237 71.2293 24.6073 70.0546C23.7561 68.1192 25.2586 65.6489 28.0281 64.431C28.9557 64.0229 29.941 63.8069 30.877 63.8069C31.5843 63.8069 32.2389 63.932 32.822 64.1783L33.3658 64.4085C33.7896 64.5876 34.2742 64.5425 34.6569 64.2886C34.6658 64.2828 34.6743 64.2768 34.6829 64.2708V65.8783L34.6754 65.9279C34.6544 66.0654 34.6544 66.2056 34.6758 66.3435ZM61.0589 60.43L61.0675 60.5007C61.157 61.2367 60.9661 62.027 60.5145 62.7866C59.8713 63.8695 58.7813 64.7896 57.4457 65.377C56.5179 65.7851 55.5327 66.0011 54.5965 66.0011C52.8878 66.0011 51.5059 65.2716 50.9895 64.097C50.5975 63.2055 50.7257 62.1002 51.3415 61.0637C51.9847 59.9808 53.0744 59.061 54.4103 58.4737C55.338 58.0656 56.3234 57.8496 57.2595 57.8496C57.9757 57.8496 58.6367 57.9775 59.2245 58.2298L59.7705 58.4639C60.1947 58.6454 60.6804 58.602 61.0651 58.3486C61.0749 58.342 61.0845 58.3357 61.0938 58.3288V59.9152L61.084 59.9579C61.0486 60.1129 61.04 60.2725 61.0589 60.43ZM60.0094 42.0823L35.7516 47.5537C35.5747 47.5936 35.4122 47.6667 35.2699 47.7657V38.7098L61.0938 32.8849V42.2946C60.7794 42.0756 60.3852 41.9977 60.0094 42.0823Z" fill="#F4EEE2"/>
<g opacity="0.1">
<path opacity="0.1" d="M14.6744 4.88448H59.2349C59.9918 4.88448 60.6054 5.49806 60.6054 6.25496V2.54531C60.6054 1.78842 59.9918 1.17484 59.2349 1.17484H14.6744C13.9175 1.17484 13.304 1.78842 13.304 2.54531V6.25514C13.304 5.49806 13.9174 4.88448 14.6744 4.88448Z" fill="black"/>
<path opacity="0.1" d="M78.3254 20.2649H60.6055V23.9747H78.3254C79.0821 23.9747 79.6959 24.5883 79.6959 25.3452V21.6354C79.6959 20.8787 79.0823 20.2649 78.3254 20.2649Z" fill="black"/>
</g>
<g opacity="0.1">
<path opacity="0.1" d="M20.9585 91.662H18.3999C17.643 91.662 17.0294 91.0484 17.0294 90.2915V2.38202C17.0294 1.8598 17.3215 1.40625 17.7511 1.17484H14.6744C13.9175 1.17484 13.304 1.78842 13.304 2.54531V90.4548C13.304 91.2117 13.9175 91.8253 14.6744 91.8253H20.9587V91.662H20.9585Z" fill="black"/>
</g>
<path d="M77.7714 18.5126L62.3578 3.09896C61.9656 2.70716 61.3767 2.58946 60.8641 2.80198C60.3519 3.01395 60.0181 3.51383 60.0181 4.06819V19.4819C60.0181 20.2387 60.6317 20.8523 61.3885 20.8523H76.802C77.3564 20.8523 77.8561 20.5185 78.0682 20.0062C78.2808 19.4942 78.1634 18.9048 77.7714 18.5126Z" fill="#798593"/>
<g opacity="0.1">
<path opacity="0.1" d="M63.7811 19.4819V4.5223L62.3578 3.09896C61.9656 2.70716 61.3767 2.58946 60.8641 2.80198C60.3519 3.01395 60.0181 3.51383 60.0181 4.06819V19.4819C60.0181 20.2387 60.6317 20.8523 61.3885 20.8523H65.1516C64.3947 20.8523 63.7811 20.2387 63.7811 19.4819Z" fill="black"/>
</g>
<path d="M36.0535 46.6831L60.311 41.2113V33.8647L36.0535 39.3362V46.6831Z" fill="#820024"/>
<g opacity="0.1">
<path opacity="0.1" d="M38.4021 38.8065L36.0535 39.3363V46.6831L38.4021 46.1531V42.7097V38.8468V38.8065Z" fill="black"/>
</g>
<path d="M57.2597 58.6331C56.4317 58.6331 55.5553 58.826 54.7256 59.1909C53.5553 59.7056 52.5675 60.5339 52.015 61.4641C51.7302 61.9436 51.3111 62.8822 51.7067 63.7818C52.0962 64.6675 53.2038 65.2179 54.5974 65.2179C55.4249 65.2179 56.3011 65.025 57.1312 64.6601C58.3012 64.1451 59.289 63.3165 59.8417 62.3865C60.1265 61.9069 60.5455 60.9684 60.1497 60.0689C59.7598 59.1832 58.6527 58.6331 57.2597 58.6331Z" fill="#820024"/>
<g opacity="0.1">
<path opacity="0.1" d="M54.0667 63.782C53.6711 62.8824 54.09 61.9438 54.375 61.4643C54.9275 60.5341 55.9155 59.7056 57.0856 59.1911C57.5121 59.0034 57.9507 58.8623 58.3887 58.7686C58.0428 58.681 57.6639 58.6334 57.2594 58.6334C56.4315 58.6334 55.5551 58.8263 54.7253 59.1912C53.555 59.706 52.5673 60.5343 52.0147 61.4645C51.7299 61.944 51.3109 62.8825 51.7065 63.7822C52.0959 64.6679 53.2036 65.2183 54.5971 65.2183C54.9996 65.2183 55.4134 65.1719 55.8274 65.0829C54.9826 64.8688 54.343 64.4105 54.0667 63.782Z" fill="black"/>
</g>
<path d="M30.8771 64.5901C30.0492 64.5901 29.1731 64.783 28.3432 65.1479C26.0549 66.1544 24.6726 68.257 25.3245 69.7394C25.714 70.6251 26.8214 71.1755 28.2146 71.1755C29.0427 71.1755 29.9191 70.9826 30.749 70.6175C33.037 69.611 34.4196 67.5083 33.7677 66.026C33.3779 65.1405 32.2705 64.5901 30.8771 64.5901Z" fill="#820024"/>
<g opacity="0.1">
<path opacity="0.1" d="M27.6882 69.7395C27.0363 68.2571 28.4186 66.1546 30.7069 65.148C31.1328 64.9609 31.5708 64.8196 32.0082 64.7258C31.662 64.6381 31.2821 64.5903 30.8771 64.5903C30.0492 64.5903 29.1731 64.7832 28.3432 65.1482C26.0549 66.1546 24.6726 68.2573 25.3245 69.7397C25.714 70.6253 26.8214 71.1757 28.2146 71.1757C28.6177 71.1757 29.0323 71.1294 29.4476 71.0402C28.6029 70.8259 27.9647 70.3678 27.6882 69.7395Z" fill="black"/>
</g>
<path d="M80.8682 20.5092C80.8677 20.4927 80.8667 20.4763 80.8658 20.4598C80.8615 20.3973 80.8548 20.3352 80.8428 20.2742L80.8424 20.2716C80.8301 20.2095 80.8123 20.1488 80.7921 20.0891C80.787 20.0738 80.7816 20.0586 80.7759 20.0435C80.7549 19.9874 80.7312 19.932 80.7035 19.8786C80.7016 19.8753 80.7004 19.8717 80.6987 19.8684C80.6689 19.8125 80.6342 19.7592 80.5974 19.7075C80.5879 19.6942 80.5781 19.6809 80.5681 19.668C80.5287 19.6166 80.4873 19.5665 80.4408 19.52L61.3502 0.429943C61.3039 0.383625 61.2539 0.342029 61.2023 0.302613C61.1893 0.292623 61.1762 0.282814 61.1626 0.273187C61.1108 0.236314 61.0577 0.201984 61.002 0.172195C60.998 0.170016 60.9938 0.168563 60.9898 0.166564C60.9373 0.139137 60.8828 0.116068 60.8274 0.0951797C60.8116 0.0893672 60.7956 0.083373 60.7797 0.0781055C60.7208 0.058125 60.6609 0.0406875 60.5995 0.0283359C60.5964 0.027791 60.5935 0.0276094 60.5902 0.0268828C60.5317 0.0154395 60.4721 0.00890039 60.4122 0.00472266C60.3944 0.00363281 60.3766 0.00254297 60.3586 0.00199805C60.3434 0.00181641 60.3276 0 60.3117 0H13.5978C12.7866 0 12.1294 0.657176 12.1294 1.46838V91.5316C12.1294 92.3428 12.7866 93 13.5978 93H25.0695C25.8807 93 26.5379 92.3428 26.5379 91.5316C26.5379 90.7204 25.8807 90.0632 25.0695 90.0632H15.0662V2.93677H58.8435V20.5586C58.8435 21.3698 59.5007 22.027 60.3119 22.027H77.934V90.063H30.7476C29.9363 90.063 29.2792 90.7202 29.2792 91.5314C29.2792 92.3427 29.9363 92.9998 30.7476 92.9998H79.4022C80.2134 92.9998 80.8706 92.3427 80.8706 91.5314V20.5586C80.8706 20.5421 80.8689 20.5256 80.8682 20.5092ZM61.7801 5.01346L64.0387 7.27198L75.8571 19.0904H61.7803L61.7801 5.01346Z" fill="#1E1E24"/>
<path d="M36.4264 66.1337C36.4375 66.0609 36.4449 65.987 36.4449 65.9109V49.2037L59.9192 43.9087V56.6103C59.1331 56.2732 58.2309 56.0874 57.2595 56.0874C56.0814 56.0874 54.8507 56.3546 53.7006 56.8606C52.0319 57.5944 50.6559 58.7675 49.8266 60.1636C48.9167 61.6952 48.7527 63.3875 49.3766 64.8063C50.1786 66.6296 52.1788 67.7629 54.5966 67.7629H54.597C55.7749 67.7629 57.0052 67.4957 58.1555 66.9896C59.8242 66.2556 61.2002 65.0826 62.0295 63.6865C62.6855 62.5825 62.9516 61.3956 62.8164 60.2873C62.8415 60.1797 62.8562 60.0682 62.8562 59.953V42.072V35.7934V32.5175C62.8562 32.0712 62.6533 31.6492 62.3049 31.3708C61.9565 31.092 61.5004 30.9872 61.0649 31.0851L34.6536 37.0425C33.9841 37.1935 33.5082 37.7885 33.5082 38.4749V41.7507V48.0292V62.5549C32.7289 62.2255 31.8369 62.0445 30.8771 62.0445C29.699 62.0445 28.4685 62.3116 27.3184 62.8177C23.6447 64.4336 21.7455 67.9236 22.9944 70.7636C23.7964 72.5874 25.7966 73.7203 28.2144 73.7203H28.2146C29.3927 73.7203 30.6233 73.4529 31.7737 72.9469C34.9707 71.5414 36.8229 68.7154 36.4264 66.1337ZM59.5049 62.1867C58.9931 63.0482 58.0701 63.8193 56.9732 64.3019C56.1929 64.6452 55.3712 64.8266 54.5972 64.8266H54.5968C53.3611 64.8266 52.391 64.366 52.0651 63.6245C51.7402 62.8856 52.1051 62.079 52.3516 61.6643C52.8634 60.8026 53.7862 60.0317 54.8831 59.5494C55.6634 59.2061 56.4857 59.0247 57.2598 59.0247C58.4954 59.0247 59.4651 59.4851 59.7914 60.2268C60.1163 60.9657 59.7514 61.772 59.5049 62.1867ZM36.4451 39.6496L59.9194 34.3544V35.7939V40.8984L36.4451 46.1936V41.7514V39.6496ZM28.2144 70.7839C26.9787 70.7839 26.0089 70.3233 25.6829 69.5818C25.126 68.3158 26.4429 66.4116 28.5009 65.5065C29.2812 65.1632 30.1029 64.9818 30.8771 64.9818C32.1128 64.9818 33.0831 65.4422 33.4092 66.1839C33.9657 67.4497 32.649 69.354 30.5912 70.2592C29.8105 70.6025 28.9886 70.7839 28.2144 70.7839Z" fill="#1E1E24"/>
<path d="M21.9103 22.027H41.8315C42.6427 22.027 43.2999 21.3698 43.2999 20.5586C43.2999 19.7474 42.6427 19.0902 41.8315 19.0902H21.9103C21.0991 19.0902 20.4419 19.7474 20.4419 20.5586C20.4419 21.3696 21.0991 22.027 21.9103 22.027Z" fill="#1E1E24"/>
<path d="M21.9103 15.0653H33.0705C33.8817 15.0653 34.5388 14.4081 34.5388 13.5969C34.5388 12.7857 33.8817 12.1285 33.0705 12.1285H21.9103C21.0991 12.1285 20.4419 12.7857 20.4419 13.5969C20.4419 14.4079 21.0991 15.0653 21.9103 15.0653Z" fill="#1E1E24"/>
</svg>
