<svg width="98" height="98" viewBox="0 0 98 98" fill="none" xmlns="http://www.w3.org/2000/svg">
<path d="M94.8724 9.383H3.12769V16.6809H94.8724V9.383Z" fill="#820024"/>
<path d="M5.73413 19.8085V22.9362C6.59799 22.9362 7.29796 23.6364 7.29796 24.5V75.3766H90.7022V24.5C90.7022 23.6364 91.4022 22.9362 92.266 22.9362V19.8085H5.73413ZM74.3967 67.5575C73.533 67.5575 72.8328 66.8573 72.8328 65.9936C72.8328 65.13 73.533 64.4298 74.3967 64.4298C75.2603 64.4298 75.9605 65.13 75.9605 65.9936C75.9605 66.8573 75.2603 67.5575 74.3967 67.5575ZM80.652 61.3022C79.7884 61.3022 79.0882 60.602 79.0882 59.7383C79.0882 58.8747 79.7884 58.1745 80.652 58.1745C81.5156 58.1745 82.2158 58.8747 82.2158 59.7383C82.2158 60.602 81.5156 61.3022 80.652 61.3022Z" fill="#F4EEE2"/>
<path d="M80.652 61.3021C81.5156 61.3021 82.2158 60.602 82.2158 59.7383C82.2158 58.8746 81.5156 58.1744 80.652 58.1744C79.7883 58.1744 79.0881 58.8746 79.0881 59.7383C79.0881 60.602 79.7883 61.3021 80.652 61.3021Z" fill="#F4EEE2"/>
<path d="M74.3966 67.5575C75.2603 67.5575 75.9604 66.8573 75.9604 65.9936C75.9604 65.13 75.2603 64.4298 74.3966 64.4298C73.5329 64.4298 72.8328 65.13 72.8328 65.9936C72.8328 66.8573 73.5329 67.5575 74.3966 67.5575Z" fill="#F4EEE2"/>
<path d="M96.4362 19.8085C97.3 19.8085 98 19.1083 98 18.2447V7.81915C98 6.9555 97.3 6.25532 96.4362 6.25532H93.8298V1.56383C93.8298 0.700179 93.1298 0 92.266 0C91.4021 0 90.7021 0.700179 90.7021 1.56383V6.25532H7.29787V1.56383C7.29787 0.700179 6.5979 0 5.73404 0C4.87018 0 4.17021 0.700179 4.17021 1.56383V6.25532H1.56383C0.69997 6.25532 0 6.9555 0 7.81915V18.2447C0 19.1083 0.69997 19.8085 1.56383 19.8085H96.4362ZM3.12766 9.38298H94.8723V16.6809H3.12766V9.38298Z" fill="#1E1E24"/>
<path d="M90.7021 24.5V75.3766H7.29787V24.5C7.29787 23.6363 6.5979 22.9362 5.73404 22.9362C4.87018 22.9362 4.17021 23.6363 4.17021 24.5V75.3766H1.56383C0.69997 75.3766 0 76.0768 0 76.9404C0 77.8041 0.69997 78.5042 1.56383 78.5042H47.4362V86.7504C45.0325 87.4331 43.266 89.6464 43.266 92.2659C43.266 95.4278 45.8384 98 49 98C52.1616 98 54.734 95.4278 54.734 92.2659C54.734 89.6464 52.9675 87.4331 50.5638 86.7504V78.5042H96.4362C97.3 78.5042 98 77.8041 98 76.9404C98 76.0768 97.3 75.3766 96.4362 75.3766H93.8298V24.5C93.8298 23.6363 93.1298 22.9362 92.266 22.9362C91.4021 22.9362 90.7021 23.6363 90.7021 24.5ZM51.6064 92.2659C51.6064 93.7032 50.4373 94.8723 49 94.8723C47.5627 94.8723 46.3936 93.7032 46.3936 92.2659C46.3936 90.8287 47.5627 89.6596 49 89.6596C50.4373 89.6596 51.6064 90.8287 51.6064 92.2659Z" fill="#1E1E24"/>
<path d="M38.88 31.0681H14.9086C14.0447 31.0681 13.3447 31.7683 13.3447 32.6319C13.3447 33.4956 14.0447 34.1958 14.9086 34.1958H38.88C39.7438 34.1958 40.4438 33.4956 40.4438 32.6319C40.4438 31.7683 39.7436 31.0681 38.88 31.0681Z" fill="#798593"/>
<path d="M38.88 38.4969H14.9086C14.0447 38.4969 13.3447 39.1971 13.3447 40.0608C13.3447 40.9244 14.0447 41.6246 14.9086 41.6246H38.88C39.7438 41.6246 40.4438 40.9244 40.4438 40.0608C40.4438 39.1971 39.7436 38.4969 38.88 38.4969Z" fill="#798593"/>
<path d="M14.9086 49.0534H26.8942C27.758 49.0534 28.458 48.3533 28.458 47.4896C28.458 46.626 27.758 45.9258 26.8942 45.9258H14.9086C14.0447 45.9258 13.3447 46.626 13.3447 47.4896C13.3447 48.3533 14.0447 49.0534 14.9086 49.0534Z" fill="#798593"/>
<path d="M38.88 53.3545H14.9086C14.0447 53.3545 13.3447 54.0547 13.3447 54.9183C13.3447 55.782 14.0447 56.4822 14.9086 56.4822H38.88C39.7438 56.4822 40.4438 55.782 40.4438 54.9183C40.4438 54.0547 39.7436 53.3545 38.88 53.3545Z" fill="#798593"/>
<path d="M38.88 60.7833H14.9086C14.0447 60.7833 13.3447 61.4835 13.3447 62.3472C13.3447 63.2108 14.0447 63.911 14.9086 63.911H38.88C39.7438 63.911 40.4438 63.2108 40.4438 62.3472C40.4438 61.4835 39.7436 60.7833 38.88 60.7833Z" fill="#798593"/>
<path d="M68.5586 42.975C68.2229 40.9106 67.307 39.2968 65.8363 38.1783C64.9356 37.4934 64.0273 37.1582 63.4238 36.9976L62.8044 36.8325V41.0736L63.2716 41.0976C65.3573 41.2057 66.6594 42.1899 67.3845 42.9966C67.4869 43.1104 67.587 43.2308 67.682 43.3544L68.8721 44.9018L68.5586 42.975Z" fill="#798593"/>
<path d="M59.4519 50.8568C57.5128 50.8568 55.9353 52.4343 55.9353 54.3734C55.9353 56.3124 57.5128 57.89 59.4519 57.89C61.3909 57.89 62.9684 56.3124 62.9684 54.3734C62.9685 52.4343 61.3909 50.8568 59.4519 50.8568Z" fill="#798593"/>
<path d="M68.812 54.6384C66.8729 54.6384 65.2954 56.2159 65.2954 58.155C65.2954 60.0941 66.8729 61.6716 68.812 61.6716C70.751 61.6716 72.3285 60.0941 72.3285 58.155C72.3286 56.2159 70.751 54.6384 68.812 54.6384Z" fill="#798593"/>
<g opacity="0.1">
<path opacity="0.1" d="M56.9844 54.3735C56.9844 52.6126 58.2854 51.1502 59.9765 50.8962C59.8052 50.8704 59.6301 50.8569 59.4519 50.8569C57.5128 50.8569 55.9353 52.4344 55.9353 54.3735C55.9353 56.3125 57.5128 57.89 59.4519 57.89C59.6301 57.89 59.8052 57.8765 59.9765 57.8507C58.2854 57.5968 56.9844 56.1343 56.9844 54.3735Z" fill="#798593"/>
</g>
<g opacity="0.1">
<path opacity="0.1" d="M66.3448 58.155C66.3448 56.3942 67.6457 54.9317 69.3368 54.6777C69.1656 54.6519 68.9905 54.6384 68.8122 54.6384C66.8732 54.6384 65.2957 56.2159 65.2957 58.155C65.2957 60.094 66.8732 61.6715 68.8122 61.6715C68.9905 61.6715 69.1656 61.658 69.3368 61.6322C67.6458 61.3783 66.3448 59.9158 66.3448 58.155Z" fill="#798593"/>
</g>
<path d="M77.919 46.7565C77.5833 44.6921 76.6674 43.0783 75.1966 41.9598C74.296 41.275 73.3876 40.9397 72.7842 40.7791L72.1648 40.614V44.8551L72.6319 44.8791C74.7177 44.9872 76.0198 45.9714 76.7449 46.778C76.8472 46.8919 76.9473 47.0122 77.0423 47.1358L78.2325 48.6833L77.919 46.7565Z" fill="#798593"/>
<path d="M66.001 37.8911C64.9189 37.0785 63.8407 36.7499 63.2971 36.6265V36.4105C63.2971 36.1837 63.1134 36 62.8866 36C62.6598 36 62.4761 36.1837 62.4761 36.4105V52.0029C61.7716 51.1062 60.6784 50.5285 59.4522 50.5285C57.3321 50.5285 55.6072 52.2534 55.6072 54.3735C55.6072 55.1547 55.8402 55.9069 56.2811 56.5485C56.4095 56.7354 56.665 56.7828 56.8519 56.6545C57.0388 56.526 57.0862 56.2705 56.9579 56.0836C56.6114 55.5793 56.4283 54.988 56.4283 54.3735C56.4283 52.7061 57.7848 51.3495 59.4522 51.3495C61.1196 51.3495 62.4761 52.7061 62.4761 54.3735C62.4761 56.0409 61.1196 57.3974 59.4522 57.3974C58.8762 57.3974 58.3163 57.2351 57.8329 56.928C57.6417 56.8063 57.3879 56.8629 57.2663 57.0543C57.1447 57.2457 57.2012 57.4994 57.3926 57.621C58.0079 58.0119 58.7201 58.2185 59.4523 58.2185C61.5724 58.2185 63.2973 56.4936 63.2973 54.3735V41.4277C64.8481 41.5155 66.1321 42.1074 67.1181 43.1914C67.9292 44.0833 68.2286 44.9939 68.2312 45.0021C68.2859 45.1748 68.4459 45.2887 68.6224 45.2887C68.6432 45.2887 68.6643 45.2871 68.6853 45.2838C68.8855 45.2529 69.0331 45.0807 69.0331 44.8781C69.033 40.985 67.3842 38.9297 66.001 37.8911ZM67.7509 42.6673C66.949 41.7751 65.5378 40.7218 63.2971 40.6057V37.4736C63.81 37.6101 64.6796 37.9176 65.5382 38.5704C66.9087 39.6126 67.7574 41.1163 68.0726 43.0541C67.9744 42.9265 67.8673 42.7968 67.7509 42.6673Z" fill="#798593"/>
<path d="M75.3611 41.6726C74.279 40.86 73.2008 40.5314 72.6572 40.408V40.192C72.6572 39.9652 72.4735 39.7815 72.2467 39.7815C72.0199 39.7815 71.8362 39.9652 71.8362 40.192V55.7844C71.1317 54.8876 70.0385 54.31 68.8123 54.31C66.6922 54.31 64.9673 56.0349 64.9673 58.155C64.9673 60.2751 66.6921 62 68.8122 62C70.9324 62 72.6572 60.2751 72.6572 58.155V45.2091C74.208 45.2969 75.4921 45.8888 76.478 46.9729C77.2892 47.8647 77.5885 48.7754 77.5911 48.7835C77.6458 48.9562 77.8059 49.0701 77.9823 49.0701C78.0031 49.0701 78.0242 49.0686 78.0453 49.0653C78.2454 49.0343 78.3931 48.8621 78.3931 48.6596C78.3931 44.7664 76.7443 42.7112 75.3611 41.6726ZM68.8122 61.1789C67.1448 61.1789 65.7883 59.8224 65.7883 58.155C65.7883 56.4876 67.1448 55.131 68.8122 55.131C70.4796 55.131 71.8362 56.4876 71.8362 58.155C71.8362 59.8224 70.4796 61.1789 68.8122 61.1789ZM77.111 46.4487C76.3091 45.5565 74.8979 44.5032 72.6572 44.3871V41.255C73.1701 41.3916 74.0397 41.699 74.8983 42.3519C76.2688 43.3941 77.1175 44.8977 77.4327 46.8356C77.3345 46.708 77.2275 46.5783 77.111 46.4487Z" fill="#798593"/>
<g opacity="0.1">
<path opacity="0.1" d="M63.8274 37.334H63.2808V40.828H63.8274V37.334Z" fill="#798593"/>
</g>
<g opacity="0.1">
<path opacity="0.1" d="M73.1824 41.1545H72.6357V44.6485H73.1824V41.1545Z" fill="#798593"/>
</g>
</svg>
